<svg xmlns="http://www.w3.org/2000/svg" width="59.29" height="91.658" viewBox="0 0 59.29 91.658">
  <path id="Icon_material-developer-mode" data-name="Icon material-developer-mode" d="M17.117,18.165H54.173V26.5h7.411V9.833c0-4.583-3.335-8.291-7.411-8.291L17.117,1.5c-4.076,0-7.411,3.75-7.411,8.333V26.5h7.411ZM48.281,66.452,65.29,47.329,48.281,28.206l-5.225,5.916L54.8,47.329,43.056,60.536l5.225,5.916ZM28.234,60.536,16.487,47.329,28.234,34.122l-5.225-5.916L6,47.329,23.009,66.452ZM54.173,76.493H17.117V68.161H9.706V84.826c0,4.583,3.335,8.333,7.411,8.333H54.173c4.076,0,7.411-3.75,7.411-8.333V68.161H54.173Z" transform="translate(-6 -1.5)"/>
</svg>
